<svg width="410" height="206" viewBox="0 0 410 206" fill="none" xmlns="http://www.w3.org/2000/svg">
<path d="M373.141 5.97608C383.074 -2.72792 397.358 -0.679918 405.038 10.5841C408.728 16.0695 410.343 22.6903 409.592 29.2586C408.842 35.8269 405.775 41.9127 400.942 46.4241L228.911 196.184C222.358 202.113 213.837 205.397 205 205.397C196.163 205.397 187.642 202.113 181.09 196.184L9.05769 46.4753C4.19893 41.9583 1.11555 35.8527 0.364392 29.2614C-0.386764 22.67 1.24385 16.0272 4.96171 10.5329C12.6417 -0.628727 26.9777 -2.67673 36.8593 5.92487L205 152.306L373.141 6.02726V5.97608Z" fill="#e2e8f0"/>
</svg>
