<svg width="50" height="50" viewBox="0 0 50 50" fill="none" xmlns="http://www.w3.org/2000/svg">
<path d="M15.8976 33.5767C17.3729 41.7486 20.8931 47.5 25.001 47.5C29.1342 47.5 32.6724 41.6775 34.1314 33.4252M15.7789 32.8867C15.7414 32.6578 15.7055 32.4271 15.6712 32.1948M15.6712 17.8052C15.7055 17.5729 15.7414 17.3422 15.7789 17.1133M15.8976 16.4233C17.3729 8.25136 20.8931 2.5 25.001 2.5C29.1342 2.5 32.6724 8.32252 34.1314 16.5748M25.001 46.8C23.8734 46.8 22.7441 46.2806 21.6559 45.2286C20.5643 44.1733 19.5493 42.6124 18.6817 40.6293C17.7952 38.6031 17.077 36.1689 16.5867 33.4532C19.2933 32.9902 22.2858 32.7312 25.4419 32.7312C28.2693 32.7312 30.9645 32.939 33.44 33.3149C32.9492 36.0863 32.2218 38.5687 31.3202 40.6293C30.4527 42.6124 29.4376 44.1733 28.3461 45.2286C27.2578 46.2806 26.1285 46.8 25.001 46.8ZM14.9834 32.3287C11.5528 33.0249 8.59378 34.0563 6.37188 35.3286L7.06757 36.5435C9.12921 35.3629 11.9255 34.3821 15.2106 33.7111C15.7183 36.5198 16.4655 39.0566 17.3991 41.1905C18.3129 43.2791 19.419 45.0133 20.6828 46.2351C20.7438 46.2941 20.8052 46.3519 20.8671 46.4086C10.8041 44.477 3.20098 35.6264 3.20098 25C3.20098 14.3736 10.8041 5.52302 20.8671 3.59143C20.8052 3.64811 20.7438 3.70594 20.6828 3.7649C19.419 4.98671 18.3129 6.72089 17.3991 8.80952C16.4655 10.9434 15.7183 13.4802 15.2106 16.2889C11.9255 15.6179 9.12921 14.6371 7.06757 13.4565L6.37188 14.6714C8.59378 15.9437 11.5528 16.9751 14.9834 17.6713C14.6416 19.977 14.4572 22.442 14.4572 25C14.4572 27.558 14.6416 30.023 14.9834 32.3287ZM25.4419 31.3312C22.2302 31.3312 19.1597 31.5934 16.3606 32.0716C16.0348 29.856 15.8572 27.4781 15.8572 25C15.8572 22.5219 16.0348 20.144 16.3606 17.9284C19.1597 18.4066 22.2302 18.6687 25.4419 18.6687C28.3263 18.6687 31.0978 18.4573 33.6615 18.0674C33.9745 20.2433 34.1447 22.5737 34.1447 25C34.1447 27.4263 33.9745 29.7566 33.6615 31.9326C31.0978 31.5427 28.3263 31.3312 25.4419 31.3312ZM25.4419 17.2687C22.2858 17.2687 19.2933 17.0098 16.5867 16.5468C17.077 13.8311 17.7952 11.3969 18.6817 9.37067C19.5493 7.3876 20.5643 5.82674 21.6559 4.77143C22.7441 3.71937 23.8734 3.2 25.001 3.2C26.1285 3.2 27.2578 3.71937 28.3461 4.77143C29.4376 5.82674 30.4527 7.3876 31.3202 9.37067C32.2218 11.4313 32.9492 13.9137 33.44 16.6851C30.9645 17.061 28.2693 17.2687 25.4419 17.2687ZM29.3191 3.7649C29.2582 3.70594 29.1967 3.64811 29.1349 3.59143C35.2363 4.76259 40.4333 8.47735 43.5797 13.5893C41.3637 14.8094 38.35 15.8069 34.8209 16.454C34.3128 13.5795 33.5547 10.9851 32.6029 8.80952C31.6891 6.72089 30.5829 4.98671 29.3191 3.7649ZM35.0427 17.8366C38.7132 17.1663 41.8925 16.12 44.2749 14.8046C45.8876 17.847 46.801 21.3168 46.801 25C46.801 28.6832 45.8876 32.153 44.2749 35.1954C41.8925 33.88 38.7132 32.8337 35.0427 32.1634C35.3691 29.9053 35.5447 27.497 35.5447 25C35.5447 22.503 35.3691 20.0947 35.0427 17.8366ZM34.8209 33.546C38.35 34.1931 41.3637 35.1906 43.5797 36.4107C40.4334 41.5226 35.2363 45.2374 29.1349 46.4086C29.1967 46.3519 29.2582 46.2941 29.3191 46.2351C30.5829 45.0133 31.6891 43.2791 32.6029 41.1905C33.5547 39.0149 34.3128 36.4204 34.8209 33.546Z" stroke="#BDBDBD" stroke-width="1.4"/>
</svg>
