<svg width="407" height="54" viewBox="0 0 407 54" fill="none" xmlns="http://www.w3.org/2000/svg">
<path d="M86.4069 3.89017C85.482 4.44179 84.6305 5.11983 83.7677 5.76977C83.4168 6.03417 83.072 6.11844 82.6344 6.08157C81.2637 5.9657 79.886 5.92866 78.5176 5.79365C77.7331 5.71622 77.2049 6.03277 76.6965 6.62477C78.0303 7.12601 79.3051 7.60513 80.6867 8.12445C79.8521 8.7679 79.0433 9.26598 78.3941 9.92172C77.4244 10.9012 76.4106 11.2158 75.1366 10.6024C74.4819 10.2872 74.141 10.8815 73.8466 11.2388C73.5127 11.6442 74.112 11.7652 74.3058 12.0022C74.5256 12.2711 74.7768 12.5171 75.0304 12.756C75.5523 13.2476 75.9795 13.6625 76.811 13.045C78.1573 12.0454 79.6442 11.2348 81.2039 10.2618C81.0627 12.1948 80.9331 13.9711 80.7984 15.8149C81.7285 15.4432 82.2771 14.9388 82.5936 14.0501C83.2876 12.101 84.12 10.2012 84.8778 8.27439C85.0388 7.86479 85.316 7.61689 85.6818 7.39832C87.3553 6.399 89.0749 5.44831 90.1048 3.68353C90.1048 3.50814 90.1048 3.33275 90.1048 3.15736C88.7788 2.93088 87.5319 3.21933 86.4069 3.89017Z" fill="#4D4D4D"/>
<path d="M51.521 21.2583C52.9833 20.5938 54.4606 19.9609 55.9442 19.345C56.4145 19.1498 56.5237 18.9981 56.137 18.5744C54.8924 17.2106 54.0012 15.6818 54.105 13.745C54.1375 13.5798 54.1782 13.4135 54.1799 13.2483C54.3795 12.0815 54.7483 10.9779 55.5003 10.0172C56.5418 9.10145 57.689 8.41007 59.0976 8.20413C60.4173 8.01119 60.4142 7.98942 60.3908 9.28808C60.2265 10.6952 60.0623 12.1022 59.898 13.5094C59.8853 13.6779 59.8725 13.8463 59.8598 14.0148H59.86L59.8711 14.0194C59.5069 15.2134 59.5944 16.4568 59.3915 17.6948C61.7736 17.1552 62.155 16.7945 62.2004 15.0961C62.5184 13.5469 62.6434 11.9763 62.7231 10.4006C62.7231 10.4006 62.7231 10.4006 62.7233 10.4006C62.8188 9.82706 62.9665 9.25612 62.9951 8.67921C63.0247 8.08194 63.2723 8.0456 63.7774 8.15094C65.8227 8.57826 67.209 9.79616 68.1063 11.6328C68.1914 12.4937 68.2663 13.3561 68.3669 14.2153C68.4046 14.5377 68.508 14.8709 68.9174 14.8793C69.2776 14.8867 69.3912 14.5931 69.465 14.3047C69.6592 13.5466 69.7703 12.7769 69.7577 11.9921C69.7577 11.9921 69.7577 11.9923 69.7579 11.9923C70.0616 10.7159 70.1001 9.40851 70.1958 8.10933C70.2517 7.34896 69.7853 6.92935 69.1059 6.72921C67.7094 6.31768 66.2972 5.96304 64.8442 5.82329C63.3924 5.68354 63.3908 5.70127 63.4148 4.25462C63.445 4.15928 63.4719 4.06448 63.4848 3.97125C63.7097 3.01758 63.7749 2.03898 63.9038 1.07056C63.9395 0.802297 63.9487 0.546674 63.5366 0.538949C62.0112 0.510683 61.2402 1.17555 61.1043 2.67049C61.0911 2.81498 61.0967 2.96105 61.0937 3.10659C60.8994 3.45492 60.9409 3.83256 60.956 4.20704C60.9534 4.26761 60.9505 4.328 60.9479 4.38857C60.9342 5.46742 60.4456 5.76395 59.3224 5.87631C56.6232 6.14598 54.1082 7.04593 52.1249 9.04123C52.1249 9.04123 52.125 9.04141 52.1248 9.04141C50.4298 10.4981 49.2409 12.2283 49.1396 14.5463C48.8839 16.8662 49.2012 19.0453 50.6097 20.9993C50.8986 21.4005 51.0902 21.4542 51.521 21.2583Z" fill="#1186C7"/>
<path d="M20.7078 32.122C21.7023 31.9773 22.5816 31.7136 22.5113 30.4306C22.5077 30.3665 22.6104 30.2968 22.6637 30.2298C22.6637 30.2298 22.6637 30.2298 22.6637 30.2296C22.7888 30.1321 22.8283 29.9992 22.8225 29.8475C22.9395 29.4922 23.0563 29.1369 23.1732 28.7815C23.1732 28.7815 23.173 28.7815 23.173 28.7813H23.1732C23.5445 27.9411 23.889 27.0915 24.0594 26.183C24.0594 26.1828 24.0594 26.1828 24.0594 26.1826C24.3028 25.6852 24.5027 25.1728 24.6042 24.6261C25.1225 23.4838 25.4814 22.2874 25.8145 21.0819C26.0319 20.7582 26.1501 20.3991 26.1949 20.0141C26.4144 19.5168 26.6712 19.032 26.7146 18.4753C27.0656 17.8749 27.2251 17.2047 27.4174 16.5465C27.5204 16.5269 27.6235 16.5074 27.7265 16.4877C27.9522 17.0892 28.1778 17.6905 28.4034 18.292C28.5399 19.0174 28.8216 19.6921 29.1282 20.3582V20.3584C29.2683 21.0954 29.4913 21.8054 29.8264 22.4785C29.8265 22.4789 29.8265 22.4791 29.8267 22.4792C30.0121 23.3881 30.361 24.2421 30.7087 25.0964C31.0001 26.0768 31.3057 27.0532 31.5773 28.039C31.7213 28.5617 32.0194 28.3175 32.2988 28.2316C32.6398 28.2071 32.9495 28.0912 33.2369 27.9109C33.2371 27.9109 33.2371 27.9109 33.2372 27.9109C34.6384 27.4658 36.0337 27.0009 37.4432 26.5847C38.077 26.3975 38.5496 26.2019 38.0711 25.4423C37.8584 24.6534 37.6101 23.8778 37.2218 23.1539C36.9756 22.1778 36.6504 21.2308 36.1782 20.3381C36.027 19.6088 35.7827 18.9119 35.4449 18.2478C35.4167 17.5274 34.8429 17.0088 34.7289 16.3202C34.583 15.5074 34.1969 14.7832 33.8799 14.0335C33.7518 13.2937 33.4393 12.6195 33.1351 11.9422C33.0426 11.6988 32.9501 11.4557 32.8576 11.2123C32.8467 11.0187 32.8134 10.834 32.6499 10.7021L32.6479 10.6978C32.618 10.1791 32.3637 9.73882 32.1532 9.28323C31.8509 8.4679 31.5486 7.6524 31.2461 6.83707C30.8812 5.74102 30.5363 4.6332 29.9145 3.64846C29.4496 2.91231 28.7499 2.9095 28.3505 3.65565C27.9567 4.39162 27.5524 5.13374 27.3933 5.97101C27.0436 6.90625 26.694 7.84166 26.3444 8.7769C26.1459 9.29587 25.8488 9.78095 25.798 10.3512C25.6494 10.6305 25.4609 10.8946 25.4614 11.2308C25.0854 11.6871 25.0523 12.2629 24.9118 12.8012C24.5314 13.5258 24.2279 14.2788 24.059 15.0822C23.7687 15.8438 23.4783 16.6054 23.188 17.3671C22.9671 17.8801 22.7311 18.388 22.6412 18.9462C22.2459 19.7285 21.9429 20.544 21.7519 21.4002C21.4823 21.8302 21.3335 22.3079 21.2002 22.7916C20.8755 23.5987 20.5273 24.3976 20.3358 25.2514C19.9603 25.9202 19.7382 26.6473 19.5231 27.3772C19.3956 27.7251 19.2681 28.0729 19.1405 28.4209C18.9482 28.5995 18.9261 28.8486 18.8652 29.0817C18.5492 29.969 18.2333 30.8565 17.9173 31.7438C17.7337 32.2138 17.5499 32.684 17.3188 33.2755C18.5833 32.9612 19.6427 32.5328 20.7078 32.122ZM20.394 28.5891C20.3515 28.4936 20.4563 28.5886 20.4169 28.6195C20.4106 28.6184 20.4044 28.6175 20.3981 28.6165C20.3993 28.6081 20.3984 28.5989 20.394 28.5891Z" fill="#1186C7"/>
<path d="M74.0568 13.4666C73.2955 13.8753 72.5398 14.2949 71.7792 14.7052C64.38 18.6961 56.9819 22.6846 49.2852 26.0952C45.8915 27.5989 42.5083 29.1095 38.9825 30.287C34.9645 31.6288 30.92 32.8734 26.8114 33.9138C23.9682 34.6338 21.106 35.2548 18.2196 35.7699C18.1652 35.7402 18.1153 35.7465 18.0701 35.7888C17.2829 35.8213 16.503 35.907 15.7394 36.1101C15.5215 36.124 15.3036 36.1379 15.0857 36.1516C14.502 36.1726 13.9184 36.1984 13.3346 36.2137C11.8677 36.2522 10.4078 36.1995 8.99177 35.7634C6.75882 35.0757 6.01544 33.6764 6.69973 31.4638C7.40829 29.173 8.97612 27.4783 10.6653 25.8919C11.9229 24.7107 13.2598 23.6139 14.5616 22.4794C14.5769 22.4794 14.5911 22.4554 14.6047 22.4074C14.618 22.36 14.6006 22.314 14.5523 22.2694C11.1609 23.9861 7.99128 26.0493 5.04378 28.4414C3.38468 29.7878 1.87241 31.2835 0.805618 33.1754C-0.604993 35.677 -0.146689 38.1527 2.05109 39.5614C3.01501 40.1792 4.07319 40.6102 5.19327 40.862C7.86501 41.4628 10.57 41.6336 13.3022 41.484C13.5138 41.4724 14.1954 41.1525 13.8984 41.8639C13.0226 43.9609 12.3452 46.1449 11.2186 48.1332C10.302 49.751 9.00479 50.8287 7.05726 50.9342C6.50293 50.9642 5.94984 51.0146 5.39551 51.0411C5.06841 51.0567 4.79705 51.1468 4.79001 51.5199C4.7835 51.872 5.03517 52.035 5.35243 52.076C5.58299 52.1059 5.8197 52.0978 6.05342 52.0938C8.91932 52.0448 11.7852 51.9675 14.6513 51.9531C16.2001 51.9454 17.7495 52.0497 19.299 52.0908C19.6362 52.0997 20.0213 52.1796 20.2077 51.7556C20.3802 51.5606 20.3917 51.3824 20.1523 51.2307C19.5924 50.8592 18.9656 51.0736 18.3715 51.0462C16.5842 50.9635 15.9451 50.204 16.21 48.4585C16.529 46.3554 17.5488 44.4851 18.158 42.4814C18.4944 41.3748 19.0398 40.9039 20.2485 40.7403C25.0099 40.0956 29.645 38.8763 34.1825 37.2964C34.5798 37.1581 34.8553 37.0738 35.0542 37.6105C36.5452 41.632 38.0719 45.6402 39.5733 49.6578C39.8244 50.3299 39.5641 50.8025 38.8677 50.9975C38.5585 51.0841 38.144 51.1024 38.2354 51.5369C38.3134 51.907 38.7237 51.901 39.0427 51.9182C43.6932 52.1693 48.348 52.0975 53.0018 52.0703C53.4564 52.0676 54.1983 52.1213 54.1813 51.4717C54.1641 50.8195 53.4553 51.0634 53.0299 51.0437C51.2067 50.9593 49.4693 50.6966 48.2441 49.1267C47.5955 48.2958 46.9979 47.4325 46.5349 46.4852C44.7908 42.9178 43.4126 39.1955 41.9182 35.5234C41.4167 34.2911 41.1967 34.5685 42.538 34.0012C46.6882 32.2461 50.636 30.1133 54.4854 27.7871C56.025 26.8566 56.0103 26.874 57.4564 27.9402C57.9327 28.2913 58.1122 28.6159 58.0143 29.241C57.8113 30.5354 57.742 31.8507 57.6177 33.1575C57.6054 33.3188 57.5929 33.4802 57.5806 33.6413C57.334 35.2253 57.136 36.8141 57.0778 38.4178C57.0697 38.5217 57.0616 38.6256 57.0535 38.7294C56.9005 39.0194 56.8958 39.331 56.9181 39.6469C56.9053 39.8091 56.8922 39.9713 56.8794 40.1336C56.7178 41.345 56.5192 42.553 56.4116 43.7693C56.3652 44.2952 56.2385 44.4818 55.6865 44.414C52.4065 44.012 48.8855 41.2226 49.25 37.1381C49.281 36.7915 49.2689 36.4388 49.247 36.091C49.2342 35.887 49.1672 35.6633 48.9212 35.6284C48.6913 35.5959 48.5457 35.7576 48.4411 35.9446C48.3413 36.1226 48.2008 36.295 48.1621 36.4869C47.8108 38.2266 47.3611 39.9536 47.4128 41.7507C47.3145 42.6243 47.1878 43.4981 47.42 44.3708C47.4056 44.9342 47.8069 45.1818 48.229 45.3858C50.3008 46.3868 52.5289 46.6876 54.7926 46.8207C55.0669 46.8351 55.3411 46.8495 55.6155 46.8639C55.6155 46.8639 55.6155 46.8639 55.6156 46.8639C55.7989 46.9171 55.9821 46.9701 56.1652 47.0233C56.167 47.1209 56.1686 47.2185 56.1703 47.3159C55.8775 48.2722 55.8951 49.2742 55.7373 50.2507C55.4048 52.3101 55.4071 52.2883 57.4158 51.808C57.9685 51.6758 58.204 51.4119 58.2497 50.8785C58.3145 50.1223 58.43 49.3701 58.4849 48.6134C58.5995 47.0349 58.589 47.0342 60.0634 46.8066C60.31 46.8284 60.5546 46.8387 60.7743 46.6925C63.7724 46.1988 66.2762 44.8505 68.2067 42.4705C71.2486 38.7199 71.075 32.1334 67.7264 28.1514C66.1496 26.2764 64.2786 24.7547 62.2704 23.379C62.0206 23.2078 61.544 23.0747 62.1202 22.6601C65.0837 20.5275 68.0412 18.3861 70.9799 16.2196C72.1123 15.3848 73.1898 14.4754 74.3612 13.5451C74.1625 13.4917 74.0925 13.4474 74.0568 13.4666ZM56.9819 40.3413C56.9823 40.3414 56.9828 40.3416 56.9832 40.3418C56.9826 40.3432 56.9832 40.3448 56.9825 40.3462C56.9825 40.3444 56.9819 40.3428 56.9819 40.3413ZM64.5942 34.3757C66.2477 37.6556 64.9491 41.9528 61.7426 43.7323C61.1241 44.0755 60.4503 44.2627 59.7536 44.3812C59.2527 44.4663 59.0415 44.4203 59.1148 43.7786C59.5061 40.3542 59.8371 36.9228 60.1825 33.4933C60.2175 33.1462 60.209 32.7949 60.2208 32.4455C60.2335 32.2863 60.2463 32.1269 60.259 31.9677C60.5136 31.4238 60.3362 30.8116 60.568 30.1075C62.257 31.264 63.6799 32.5621 64.5942 34.3757Z" fill="#EB3438"/>
<path d="M371.215 10.8855C369.627 10.8855 368.296 10.4027 367.222 9.4369C366.147 8.42515 365.61 7.18345 365.61 5.71182C365.61 4.24018 366.147 3.02147 367.222 2.05571C368.296 1.04396 369.627 0.538086 371.215 0.538086C372.803 0.538086 374.134 1.02097 375.208 1.98673C376.283 2.9065 376.82 4.07922 376.82 5.50486C376.82 7.02249 376.283 8.31018 375.208 9.36792C374.181 10.3797 372.85 10.8855 371.215 10.8855Z" fill="#EB3438"/>
<path d="M237.452 22.2406C239.897 18.5036 244.199 16.635 250.358 16.635V24.5762C249.634 24.4427 248.977 24.376 248.388 24.376C245.082 24.376 242.501 25.3325 240.645 27.2455C238.788 29.114 237.86 31.8278 237.86 35.3869V52.6706H229.369V17.0354H237.452V22.2406Z" fill="#00A3E8"/>
<path d="M289.97 35.0532C289.97 35.6316 289.925 36.4546 289.835 37.5223H261.373C261.871 40.1471 263.162 42.2381 265.245 43.7952C267.373 45.3078 270 46.0641 273.124 46.0641C277.109 46.0641 280.393 44.7739 282.974 42.1936L287.525 47.332C285.895 49.245 283.834 50.6909 281.344 51.6696C278.853 52.6483 276.045 53.1377 272.921 53.1377C268.936 53.1377 265.426 52.3592 262.392 50.8021C259.358 49.245 257.003 47.0873 255.327 44.329C253.697 41.5263 252.882 38.3676 252.882 34.853C252.882 31.3829 253.675 28.2687 255.26 25.5105C256.89 22.7077 259.131 20.5278 261.984 18.9707C264.837 17.4136 268.053 16.635 271.63 16.635C275.162 16.635 278.31 17.4136 281.072 18.9707C283.88 20.4833 286.053 22.641 287.593 25.4437C289.178 28.202 289.97 31.4052 289.97 35.0532ZM271.63 23.3083C268.913 23.3083 266.603 24.1091 264.701 25.7107C262.845 27.2678 261.713 29.3587 261.305 31.9835H281.887C281.525 29.4032 280.415 27.3122 278.559 25.7107C276.702 24.1091 274.392 23.3083 271.63 23.3083Z" fill="#00A3E8"/>
<path d="M342.551 16.635C347.125 16.635 350.747 17.9475 353.419 20.5723C356.091 23.1526 357.427 27.0453 357.427 32.2504V52.6706H348.936V33.3182C348.936 30.204 348.234 27.8683 346.83 26.3113C345.426 24.7097 343.411 23.9089 340.785 23.9089C337.932 23.9089 335.645 24.8431 333.924 26.7116C332.203 28.5357 331.343 31.1605 331.343 34.5861V52.6706H322.852V33.3182C322.852 30.204 322.15 27.8683 320.746 26.3113C319.342 24.7097 317.327 23.9089 314.701 23.9089C311.802 23.9089 309.493 24.8209 307.772 26.6449C306.097 28.4689 305.259 31.116 305.259 34.5861V52.6706H296.768V17.0354H304.851V21.5732C306.21 19.9717 307.908 18.7482 309.946 17.903C311.984 17.0577 314.248 16.635 316.739 16.635C319.456 16.635 321.856 17.1467 323.939 18.1699C326.067 19.1486 327.743 20.6168 328.965 22.5742C330.46 20.7057 332.384 19.2599 334.739 18.2366C337.094 17.1689 339.698 16.635 342.551 16.635Z" fill="#00A3E8"/>
<path d="M366.919 17.0354H375.41V52.6706H366.919V17.0354Z" fill="#00A3E8"/>
<path d="M407 50.7353C406.004 51.5361 404.781 52.1367 403.332 52.5371C401.928 52.9375 400.434 53.1377 398.849 53.1377C394.864 53.1377 391.784 52.1145 389.611 50.068C387.437 48.0216 386.35 45.0408 386.35 41.1259V23.9756H380.373V17.3024H386.35V9.16101H394.841V17.3024H404.555V23.9756H394.841V40.9257C394.841 42.6607 395.271 43.9954 396.132 44.9296C396.992 45.8194 398.237 46.2643 399.868 46.2643C401.77 46.2643 403.355 45.7749 404.623 44.7961L407 50.7353Z" fill="#00A3E8"/>
<path d="M127.089 42.5209H103.411L98.7432 53.5245H89.678L110.988 5.9778H119.647L141.025 53.5245H131.825L127.089 42.5209ZM124.18 35.5926L115.25 14.8079L106.388 35.5926H124.18Z" fill="#EB3438"/>
<path d="M179.934 3.125V53.5245H171.816V48.8378C170.418 50.5585 168.681 51.8491 166.607 52.7094C164.577 53.5698 162.322 54 159.842 54C156.369 54 153.234 53.2302 150.438 51.6906C147.687 50.151 145.522 47.9774 143.944 45.1699C142.365 42.3171 141.576 39.0567 141.576 35.3889C141.576 31.721 142.365 28.4833 143.944 25.6757C145.522 22.8682 147.687 20.6946 150.438 19.155C153.234 17.6154 156.369 16.8456 159.842 16.8456C162.232 16.8456 164.419 17.2532 166.404 18.0683C168.388 18.8833 170.079 20.106 171.478 21.7361V3.125H179.934ZM160.856 46.7321C162.886 46.7321 164.712 46.2793 166.336 45.3737C167.96 44.4227 169.245 43.0869 170.192 41.3662C171.139 39.6454 171.613 37.653 171.613 35.3889C171.613 33.1247 171.139 31.1323 170.192 29.4115C169.245 27.6908 167.96 26.3776 166.336 25.472C164.712 24.521 162.886 24.0456 160.856 24.0456C158.827 24.0456 157 24.521 155.377 25.472C153.753 26.3776 152.468 27.6908 151.521 29.4115C150.573 31.1323 150.1 33.1247 150.1 35.3889C150.1 37.653 150.573 39.6454 151.521 41.3662C152.468 43.0869 153.753 44.4227 155.377 45.3737C157 46.2793 158.827 46.7321 160.856 46.7321Z" fill="#EB3438"/>
<path d="M203.444 16.8456C208.766 16.8456 212.825 18.1362 215.621 20.7173C218.463 23.2531 219.883 27.1021 219.883 32.2644V53.5245H211.901V49.1095C210.863 50.6944 209.375 51.917 207.436 52.7774C205.541 53.5925 203.241 54 200.535 54C197.829 54 195.461 53.5472 193.432 52.6415C191.402 51.6906 189.824 50.4 188.696 48.7699C187.614 47.0944 187.073 45.2152 187.073 43.1322C187.073 39.8718 188.268 37.2681 190.658 35.3209C193.094 33.3285 196.905 32.3323 202.091 32.3323H211.427V31.7889C211.427 29.2531 210.66 27.3059 209.127 25.9474C207.639 24.589 205.406 23.9097 202.43 23.9097C200.4 23.9097 198.393 24.2267 196.409 24.8606C194.469 25.4946 192.823 26.3776 191.47 27.5097L188.155 21.3286C190.049 19.8796 192.327 18.7701 194.988 18.0003C197.649 17.2305 200.468 16.8456 203.444 16.8456ZM202.294 47.8189C204.414 47.8189 206.286 47.3435 207.909 46.3925C209.578 45.3963 210.751 43.9925 211.427 42.1812V37.97H202.7C197.829 37.97 195.394 39.5775 195.394 42.7926C195.394 44.3322 196.003 45.5548 197.22 46.4604C198.438 47.3661 200.129 47.8189 202.294 47.8189Z" fill="#EB3438"/>
</svg>
